<svg xmlns="http://www.w3.org/2000/svg" viewBox="0 0 48 48">
    <path fill="#db8509"
        d="M38 12.6c-2.2 0-4-1.8-4-4s1.8-4 4-4 4 1.8 4 4S40.2 12.6 38 12.6zM38 6.6c-1.1 0-2 .9-2 2s.9 2 2 2 2-.9 2-2S39.1 6.6 38 6.6zM21.5 39c0 2.2-1.8 4-4 4-2.2 0-4-1.8-4-4s1.8-4 4-4C19.7 35 21.5 36.8 21.5 39z" />
    <path fill="#ffc107"
        d="M6.7,18.7c1.6-1.6,10.8-2.3,12.9-4.4c2.1-2.1,14.9,10.6,12.7,12.7c-2.1,2.1-2.8,11.3-4.4,12.9 C26.5,41.3,5.3,20.1,6.7,18.7z" />
    <path fill="#ffc107"
        d="M25.1,34.2l11.5-11.5c3.5-3.5,3.5-9.2,0-12.7c-3.5-3.5-9.2-3.5-12.7,0L12.4,21.5L25.1,34.2z" />
    <path fill="#ffc107"
        d="M28.1,39.7c-2.3,2.3-8.6-0.2-14.8-6.4S4.5,20.8,6.9,18.5c2.3-2.3,8.6,0.2,14.8,6.4 C27.9,31.1,30.4,37.4,28.1,39.7z" />
    <path fill="#ffe082"
        d="M33.3,7.9c-2.2-0.1-4.7,0.8-7,3.1l-5.7,5.7c-0.8,0.7-9.6,2.9-14.6,3.9c-0.1,0.9,0.1,1.9,0.5,3 c4.3-0.8,14.7-3.1,16.3-4.7l5.7-5.7c2-2,4.5-4.2,6.7-4.3C34.6,8.5,34,8.2,33.3,7.9z" />
    <path fill="#bc6f0a"
        d="M21.4,39.4c-1.8-0.9-3.8-2.2-5.9-3.9c-0.3,0.2-0.6,0.4-0.9,0.7c-0.2,0.2-0.4,0.4-0.5,0.7 c2.3,2,4.5,3.5,6.6,4.4C21.1,40.7,21.4,40.1,21.4,39.4z" />
</svg>