<svg width="32" height="31" viewBox="0 0 32 31" fill="none" xmlns="http://www.w3.org/2000/svg">
<path d="M7.62463 9.57344L8.80364 17.8271H22.7713L23.9503 9.57344H7.62463Z" fill="#FFC107"/>
<path d="M25.311 9.57344V7.9862C25.311 7.46051 24.8844 7.03386 24.3587 7.03386H7.2165C6.69081 7.03386 6.26416 7.46051 6.26416 7.9862V9.57344H25.311Z" fill="#795548"/>
<path d="M8.89453 18.462L10.0735 26.7156H21.5017L22.6807 18.462H8.89453Z" fill="#77574F"/>
<path d="M15.7875 14.6526C14.9456 14.6526 14.1382 14.9871 13.5428 15.5824C12.9475 16.1777 12.613 16.9852 12.613 17.8271C12.613 18.669 12.9475 19.4765 13.5428 20.0718C14.1382 20.6671 14.9456 21.0016 15.7875 21.0016C16.6294 21.0016 17.4369 20.6671 18.0322 20.0718C18.6275 19.4765 18.962 18.669 18.962 17.8271C18.962 16.9852 18.6275 16.1777 18.0322 15.5824C17.4369 14.9871 16.6294 14.6526 15.7875 14.6526Z" fill="#77574F"/>
<path d="M13.248 17.8271C13.248 17.3623 13.382 16.9325 13.6004 16.5573H8.62278L9.0761 19.7318H14.1242C13.5915 19.2664 13.248 18.5896 13.248 17.8271ZM17.9748 16.5573C18.1932 16.9325 18.3272 17.3623 18.3272 17.8271C18.3272 18.5896 17.9837 19.2664 17.451 19.7318H22.4991L22.9524 16.5573H17.9748ZM23.4063 3.85938H8.16883L7.53394 7.03386H24.0412L23.4063 3.85938Z" fill="#4E342E"/>
<path d="M15.7875 13.3828C18.242 13.3828 20.2318 15.3726 20.2318 17.8271C20.2318 20.2816 18.242 22.2714 15.7875 22.2714C13.333 22.2714 11.3433 20.2816 11.3433 17.8271C11.3433 15.3726 13.333 13.3828 15.7875 13.3828ZM15.7875 12.7479C12.987 12.7479 10.7084 15.0266 10.7084 17.8271C10.7084 20.6276 12.987 22.9063 15.7875 22.9063C18.5881 22.9063 20.8667 20.6276 20.8667 17.8271C20.8667 15.0266 18.5881 12.7479 15.7875 12.7479Z" fill="#5D4037"/>
<path d="M15.7875 13.3828C13.333 13.3828 11.3433 15.3726 11.3433 17.8271C11.3433 20.2816 13.333 22.2714 15.7875 22.2714C18.242 22.2714 20.2318 20.2816 20.2318 17.8271C20.2318 15.3726 18.242 13.3828 15.7875 13.3828ZM15.7875 20.3667C14.385 20.3667 13.2479 19.2296 13.2479 17.8271C13.2479 16.4246 14.385 15.2875 15.7875 15.2875C17.19 15.2875 18.3271 16.4246 18.3271 17.8271C18.3271 19.2296 17.19 20.3667 15.7875 20.3667Z" fill="#FFF3E0"/>
</svg>
