<svg width="32" height="31" viewBox="0 0 32 31" fill="none" xmlns="http://www.w3.org/2000/svg">
<path d="M28.4854 12.7479V8.30365C28.4854 6.90688 27.3426 5.76407 25.9458 5.76407H22.4539C22.4539 6.27199 22.0095 6.71641 21.5016 6.71641C20.9937 6.71641 20.5492 6.27199 20.5492 5.76407H5.62918C4.23241 5.76407 3.0896 6.90688 3.0896 8.30365V12.7479C4.48637 12.7479 5.62918 13.8907 5.62918 15.2875C5.62918 16.6843 4.48637 17.8271 3.0896 17.8271V22.2714C3.0896 23.6681 4.23241 24.8109 5.62918 24.8109H20.5492C20.5492 24.303 20.9937 23.8586 21.5016 23.8586C22.0095 23.8586 22.4539 24.303 22.4539 24.8109H25.9458C27.3426 24.8109 28.4854 23.6681 28.4854 22.2714V17.8271C27.0887 17.8271 25.9458 16.6843 25.9458 15.2875C25.9458 13.8907 27.0887 12.7479 28.4854 12.7479ZM21.5016 22.5888C20.9937 22.5888 20.5492 22.1444 20.5492 21.6365C20.5492 21.1285 20.9937 20.6841 21.5016 20.6841C22.0095 20.6841 22.4539 21.1285 22.4539 21.6365C22.4539 22.1444 22.0095 22.5888 21.5016 22.5888ZM21.5016 19.4143C20.9937 19.4143 20.5492 18.9699 20.5492 18.462C20.5492 17.9541 20.9937 17.5096 21.5016 17.5096C22.0095 17.5096 22.4539 17.9541 22.4539 18.462C22.4539 18.9699 22.0095 19.4143 21.5016 19.4143ZM21.5016 16.2399C20.9937 16.2399 20.5492 15.7954 20.5492 15.2875C20.5492 14.7796 20.9937 14.3352 21.5016 14.3352C22.0095 14.3352 22.4539 14.7796 22.4539 15.2875C22.4539 15.7954 22.0095 16.2399 21.5016 16.2399ZM21.5016 13.0654C20.9937 13.0654 20.5492 12.6209 20.5492 12.113C20.5492 11.6051 20.9937 11.1607 21.5016 11.1607C22.0095 11.1607 22.4539 11.6051 22.4539 12.113C22.4539 12.6209 22.0095 13.0654 21.5016 13.0654ZM21.5016 9.89089C20.9937 9.89089 20.5492 9.44646 20.5492 8.93855C20.5492 8.43063 20.9937 7.9862 21.5016 7.9862C22.0095 7.9862 22.4539 8.43063 22.4539 8.93855C22.4539 9.44646 22.0095 9.89089 21.5016 9.89089Z" fill="#FFA726"/>
<path d="M13.8829 10.8432L15.3432 13.7638L18.5812 14.2082L16.232 16.4938L16.74 19.7318L13.8829 18.208L11.0259 19.7318L11.5338 16.4938L9.18469 14.2082L12.4227 13.7638L13.8829 10.8432Z" fill="#F44336"/>
</svg>
