<svg width="13" height="16" viewBox="0 0 13 16" fill="none" xmlns="http://www.w3.org/2000/svg">
<g clip-path="url(#clip0_601_1511)">
<path d="M6.5 16C3.1875 16 0.5 13.3125 0.5 10C0.5 7.15 4.56875 1.80313 5.70625 0.365625C5.89375 0.13125 6.17188 0 6.47188 0H6.52812C6.82812 0 7.10625 0.13125 7.29375 0.365625C8.43125 1.80313 12.5 7.15 12.5 10C12.5 13.3125 9.8125 16 6.5 16ZM3.5 10.5C3.5 10.225 3.275 10 3 10C2.725 10 2.5 10.225 2.5 10.5C2.5 12.4344 4.06562 14 6 14C6.275 14 6.5 13.775 6.5 13.5C6.5 13.225 6.275 13 6 13C4.61875 13 3.5 11.8813 3.5 10.5Z" fill="white"/>
</g>
<defs>
<clipPath id="clip0_601_1511">
<rect width="12" height="16" fill="white" transform="translate(0.5)"/>
</clipPath>
</defs>
</svg>
