<svg width="17" height="15" viewBox="0 0 17 15" fill="none" xmlns="http://www.w3.org/2000/svg">
<path d="M5 12.6719C5.53125 12.6719 6 13.1406 6 13.6719C6 14.2344 5.53125 14.6719 5 14.6719H3C1.3125 14.6719 0 13.3594 0 11.6719V3.67188C0 2.01562 1.3125 0.671875 3 0.671875H5C5.53125 0.671875 6 1.14062 6 1.67188C6 2.23438 5.53125 2.67188 5 2.67188H3C2.4375 2.67188 2 3.14062 2 3.67188V11.6719C2 12.2344 2.4375 12.6719 3 12.6719H5ZM15.6875 6.98438C16.0938 7.35938 16.0938 8.01562 15.6875 8.39062L11.6875 12.3906C11.3125 12.7969 10.6562 12.7969 10.2812 12.3906C9.875 12.0156 9.875 11.3594 10.2812 10.9844L12.5625 8.67188H6C5.4375 8.67188 5 8.23438 5 7.67188C5 7.14062 5.4375 6.67188 6 6.67188H12.5625L10.2812 4.39062C9.875 4.01562 9.875 3.35938 10.2812 2.98438C10.6562 2.57812 11.3125 2.57812 11.6875 2.98438L15.6875 6.98438Z" fill="#4BB5D9"/>
</svg>
