<svg width="20" height="20" viewBox="0 0 20 20" fill="none" xmlns="http://www.w3.org/2000/svg">
<path d="M19.0234 12.5156C19.2188 12.6328 19.2969 12.8672 19.2578 13.0625C18.7891 14.4688 18.0859 15.7188 17.1094 16.7734C16.9531 16.9297 16.7188 16.9688 16.5234 16.8516L14.8438 15.9141C14.1406 16.5 13.3594 16.9688 12.5 17.2812V19.1953C12.5 19.3906 12.3438 19.5859 12.1094 19.6641C10.7422 19.9375 9.29688 19.9766 7.85156 19.6641C7.65625 19.5859 7.5 19.3906 7.5 19.1953V17.2812C6.60156 16.9688 5.82031 16.5 5.11719 15.9141L3.4375 16.8516C3.24219 16.9688 3.00781 16.9297 2.85156 16.7734C1.91406 15.7188 1.17188 14.4688 0.742188 13.0625C0.664062 12.8672 0.742188 12.6328 0.9375 12.5156L2.61719 11.5781C2.46094 10.6406 2.46094 9.74219 2.61719 8.80469L0.9375 7.86719C0.742188 7.75 0.664062 7.51562 0.742188 7.32031C1.17188 5.91406 1.91406 4.66406 2.85156 3.60938C3.00781 3.45312 3.24219 3.41406 3.4375 3.53125L5.11719 4.50781C5.82031 3.88281 6.60156 3.41406 7.5 3.10156V1.1875C7.5 0.992188 7.61719 0.796875 7.85156 0.757812C9.21875 0.445312 10.6641 0.40625 12.1094 0.757812C12.3438 0.796875 12.5 0.992188 12.5 1.1875V3.10156C13.3594 3.41406 14.1406 3.88281 14.8438 4.46875L16.5234 3.53125C16.7188 3.41406 16.9531 3.45312 17.1094 3.60938C18.0469 4.66406 18.7891 5.91406 19.2188 7.32031C19.2969 7.51562 19.2188 7.75 19.0234 7.86719L17.3438 8.80469C17.5391 9.74219 17.5391 10.6406 17.3438 11.5781L19.0234 12.5156ZM10 13.2969C11.7188 13.2969 13.125 11.9297 13.125 10.1719C13.125 8.45312 11.7188 7.04688 10 7.04688C8.24219 7.04688 6.875 8.45312 6.875 10.1719C6.875 11.9297 8.24219 13.2969 10 13.2969Z" fill="#4BB5D9"/>
</svg>
