<svg width="18" height="21" viewBox="0 0 18 21" fill="none" xmlns="http://www.w3.org/2000/svg">
<path d="M9 10.1719C6.22656 10.1719 4 7.94531 4 5.17188C4 2.4375 6.22656 0.171875 9 0.171875C11.7344 0.171875 14 2.4375 14 5.17188C14 7.94531 11.7344 10.1719 9 10.1719ZM12.4766 11.4219C15.3672 11.4219 17.75 13.8047 17.75 16.6953V18.2969C17.75 19.3516 16.8906 20.1719 15.875 20.1719H2.125C1.07031 20.1719 0.25 19.3516 0.25 18.2969V16.6953C0.25 13.8047 2.59375 11.4219 5.48438 11.4219H6.14844C7.00781 11.8516 7.98438 12.0469 9 12.0469C10.0156 12.0469 10.9531 11.8516 11.8125 11.4219H12.4766Z" fill="#FF9900"/>
</svg>
