<svg xmlns="http://www.w3.org/2000/svg" viewBox="0 0 128 128">
    <path
        d="M 14 5 C 6.8 5 1 10.8 1 18 L 1 84 C 1 85.7 2.3 87 4 87 C 5.7 87 7 85.7 7 84 L 7 18 C 7 14.1 10.1 11 14 11 L 68 11 C 69.7 11 71 9.7 71 8 C 71 6.3 69.7 5 68 5 L 14 5 z M 107 5 C 96 5 87 14 87 25 C 87 36 96 45 107 45 C 118 45 127 36 127 25 C 127 14 118 5 107 5 z M 107 15 C 108.7 15 110 16.3 110 18 L 110 22 L 114 22 C 115.7 22 117 23.3 117 25 C 117 26.7 115.7 28 114 28 L 110 28 L 110 32 C 110 33.7 108.7 35 107 35 C 105.3 35 104 33.7 104 32 L 104 28 L 100 28 C 98.3 28 97 26.7 97 25 C 97 23.3 98.3 22 100 22 L 104 22 L 104 18 C 104 16.3 105.3 15 107 15 z M 42.699219 43.599609 A 8.4 8.4 0 1 0 42.699219 60.400391 A 8.4 8.4 0 1 0 42.699219 43.599609 z M 110 58 C 108.3 58 107 59.3 107 61 L 107 82 C 107 83.7 108.3 85 110 85 C 111.7 85 113 83.7 113 82 L 113 61 C 113 59.3 111.7 58 110 58 z M 73.699219 73.300781 C 71.399219 73.300781 69.299219 74.200781 67.699219 75.800781 L 42 101.59961 C 41 102.59961 39.5 102.59961 38.5 101.59961 L 30.5 93.599609 C 28.9 91.999609 26.8 91.099609 24.5 91.099609 C 22.2 91.099609 20.1 91.999609 18.5 93.599609 L 13.800781 98.300781 C 11.900781 100.20078 10.900391 102.59922 10.900391 105.19922 L 10.900391 113.90039 C 10.900391 121.10039 16.700391 126.90039 23.900391 126.90039 L 89.900391 126.90039 C 97.100391 126.90039 102.90039 121.10039 102.90039 113.90039 L 102.90039 103.09961 C 103.00039 100.59961 101.99961 98.100781 100.09961 96.300781 L 79.699219 75.800781 C 78.099219 74.200781 75.999219 73.300781 73.699219 73.300781 z" />
</svg>