<svg width="32" height="32" viewBox="0 0 32 32" fill="none" xmlns="http://www.w3.org/2000/svg">
<path d="M22.1365 3.13959C20.7895 3.13959 19.4976 3.67472 18.545 4.62724C17.5925 5.57977 17.0574 6.87168 17.0574 8.21876C17.0574 9.56584 17.5925 10.8577 18.545 11.8103C19.4976 12.7628 20.7895 13.2979 22.1365 13.2979C23.4836 13.2979 24.7755 12.7628 25.7281 11.8103C26.6806 10.8577 27.2157 9.56584 27.2157 8.21876C27.2157 6.87168 26.6806 5.57977 25.7281 4.62724C24.7755 3.67472 23.4836 3.13959 22.1365 3.13959Z" fill="#FFEB3B"/>
<path d="M21.5016 3.77449H22.7714V12.663H21.5016V3.77449Z" fill="#FFFDE7"/>
<path d="M17.6923 7.58386H26.5808V8.85365H17.6923V7.58386Z" fill="#FFFDE7"/>
<path d="M18.5449 5.52519L19.4428 4.62729L25.728 10.9123L24.8302 11.8102L18.5449 5.52519Z" fill="#FFFDE7"/>
<path d="M19.4429 11.8102L18.545 10.9123L24.8307 4.62684L25.7286 5.52474L19.4429 11.8102Z" fill="#FFFDE7"/>
<path d="M22.1365 4.09193C24.4126 4.09193 26.2634 5.94266 26.2634 8.21876C26.2634 10.4942 24.4126 12.3456 22.1365 12.3456C19.8611 12.3456 18.0097 10.4942 18.0097 8.21876C18.0097 5.94266 19.8611 4.09193 22.1365 4.09193ZM22.1365 3.13959C19.3309 3.13959 17.0574 5.41315 17.0574 8.21876C17.0574 11.0244 19.3309 13.2979 22.1365 13.2979C24.9421 13.2979 27.2157 11.0244 27.2157 8.21876C27.2157 5.41315 24.9421 3.13959 22.1365 3.13959Z" fill="#FFC107"/>
<path d="M19.5036 11.3932H20.433L22.7714 8.21876H18.0096C18.0096 9.49426 18.5912 10.6358 19.5036 11.3932Z" fill="#FFB300"/>
<path d="M13.2479 18.7142H14.5177V27.2656H13.2479V18.7142Z" fill="#90CAF9"/>
<path d="M18.962 27.9005C18.962 27.9005 14.5183 27.2656 14.5177 25.3609C14.5177 23.4563 13.2473 23.4563 13.2479 25.3609C13.2479 27.2656 8.80364 27.9005 8.80364 27.9005C8.45254 27.9005 8.16874 28.1843 8.16874 28.5354H19.5969C19.5969 28.1843 19.3131 27.9005 18.962 27.9005ZM4.99426 8.21876L7.33322 11.3932H18.1747C17.4769 10.5234 17.0573 9.42125 17.0573 8.21876H4.99426Z" fill="#90CAF9"/>
<path d="M18.0097 8.21876H17.0574C17.0574 9.42125 17.477 10.5234 18.1748 11.3932H19.5036C18.5913 10.6358 18.0097 9.49426 18.0097 8.21876Z" fill="#FB8C00"/>
<path d="M6.86536 10.7583L12.9724 19.0469C12.9724 19.0469 13.8124 20.3637 14.8104 19.0234C15.8072 17.6825 20.9004 10.7583 20.9004 10.7583H6.86536Z" fill="#F50057"/>
</svg>
