<svg width="32" height="31" viewBox="0 0 32 31" fill="none" xmlns="http://www.w3.org/2000/svg">
<path d="M25.8398 9.17282L17.2167 27.0985C16.6478 28.2806 14.9533 28.2806 14.3844 27.0985L5.73523 9.12012C12.5731 5.33995 19.2801 5.19583 25.8398 9.17282Z" fill="#FFD54F"/>
<path d="M25.817 9.21345C25.53 9.21345 25.2386 9.15441 24.9618 9.02997C22.233 7.80335 19.0655 7.31448 15.7495 7.31448C12.4848 7.31448 9.30273 7.78493 6.59998 8.97727C5.57653 9.42804 4.3734 8.99124 3.90802 8.00461C3.44264 7.01735 3.89278 5.85168 4.91369 5.4009C8.14214 3.97746 11.8798 3.22448 15.7215 3.22448C19.6255 3.22448 23.4127 3.99905 26.6741 5.4663C27.6919 5.92342 28.1337 7.09226 27.6601 8.07699C27.3166 8.79251 26.5833 9.21345 25.817 9.21345Z" fill="#FF9800"/>
<path fill-rule="evenodd" clip-rule="evenodd" d="M14.4037 14.4164C14.2042 14.1304 13.811 14.0585 13.5232 14.2564C13.2342 14.4551 13.161 14.8503 13.3597 15.1393L13.8829 14.7796C13.3597 15.1393 13.3598 15.1395 13.36 15.1397L13.3603 15.1401L13.361 15.1411L13.3625 15.1433C13.3636 15.1449 13.3649 15.1468 13.3664 15.1489C13.3694 15.1531 13.3731 15.1583 13.3775 15.1644C13.3864 15.1765 13.3981 15.1923 13.4128 15.2113C13.442 15.2492 13.483 15.2999 13.5355 15.3592C13.6399 15.4771 13.7928 15.6324 13.9922 15.788C14.3885 16.0973 14.9987 16.4303 15.7876 16.4303C16.5764 16.4303 17.1866 16.0973 17.5829 15.788C17.7823 15.6324 17.9352 15.4771 18.0396 15.3592C18.0921 15.2999 18.1331 15.2492 18.1624 15.2113C18.177 15.1923 18.1888 15.1765 18.1976 15.1644C18.2021 15.1583 18.2057 15.1531 18.2087 15.1489C18.2102 15.1468 18.2115 15.1449 18.2126 15.1433L18.2142 15.1411L18.2148 15.1401L18.2151 15.1397C18.2153 15.1395 18.2154 15.1393 17.6923 14.7796L18.2154 15.1393C18.4141 14.8503 18.3409 14.4551 18.0519 14.2564C17.7642 14.0585 17.3709 14.1304 17.1715 14.4164C17.1713 14.4167 17.171 14.4171 17.1706 14.4176C17.1686 14.4203 17.1642 14.4263 17.1574 14.4352C17.1438 14.4528 17.1208 14.4815 17.0889 14.5174C17.0247 14.59 16.9276 14.6887 16.8016 14.787C16.5472 14.9856 16.205 15.1605 15.7876 15.1605C15.3701 15.1605 15.028 14.9856 14.7735 14.787C14.6475 14.6887 14.5505 14.59 14.4862 14.5174C14.4544 14.4815 14.4314 14.4528 14.4177 14.4352C14.4109 14.4263 14.4065 14.4203 14.4045 14.4176C14.4041 14.4171 14.4039 14.4167 14.4037 14.4164Z" fill="black"/>
<path d="M11.3433 10.2083C11.0065 10.2083 10.6835 10.3421 10.4454 10.5802C10.2073 10.8184 10.0735 11.1414 10.0735 11.4781C10.0735 11.8149 10.2073 12.1379 10.4454 12.376C10.6835 12.6141 11.0065 12.7479 11.3433 12.7479C11.68 12.7479 12.003 12.6141 12.2412 12.376C12.4793 12.1379 12.6131 11.8149 12.6131 11.4781C12.6131 11.1414 12.4793 10.8184 12.2412 10.5802C12.003 10.3421 11.68 10.2083 11.3433 10.2083ZM20.2318 10.2083C19.8951 10.2083 19.5721 10.3421 19.3339 10.5802C19.0958 10.8184 18.962 11.1414 18.962 11.4781C18.962 11.8149 19.0958 12.1379 19.3339 12.376C19.5721 12.6141 19.8951 12.7479 20.2318 12.7479C20.5686 12.7479 20.8916 12.6141 21.1297 12.376C21.3678 12.1379 21.5016 11.8149 21.5016 11.4781C21.5016 11.1414 21.3678 10.8184 21.1297 10.5802C20.8916 10.3421 20.5686 10.2083 20.2318 10.2083Z" fill="black"/>
<path d="M11.3433 10.2083C11.1749 10.2083 11.0134 10.2752 10.8943 10.3943C10.7753 10.5134 10.7084 10.6748 10.7084 10.8432C10.7084 11.0116 10.7753 11.1731 10.8943 11.2922C11.0134 11.4112 11.1749 11.4781 11.3433 11.4781C11.5117 11.4781 11.6731 11.4112 11.7922 11.2922C11.9113 11.1731 11.9782 11.0116 11.9782 10.8432C11.9782 10.6748 11.9113 10.5134 11.7922 10.3943C11.6731 10.2752 11.5117 10.2083 11.3433 10.2083ZM20.2318 10.2083C20.0634 10.2083 19.9019 10.2752 19.7829 10.3943C19.6638 10.5134 19.5969 10.6748 19.5969 10.8432C19.5969 11.0116 19.6638 11.1731 19.7829 11.2922C19.9019 11.4112 20.0634 11.4781 20.2318 11.4781C20.4002 11.4781 20.5617 11.4112 20.6808 11.2922C20.7998 11.1731 20.8667 11.0116 20.8667 10.8432C20.8667 10.6748 20.7998 10.5134 20.6808 10.3943C20.5617 10.2752 20.4002 10.2083 20.2318 10.2083Z" fill="white"/>
<path d="M20.5461 20.1775L22.7378 15.6215C22.3708 15.4151 21.953 15.2875 21.5016 15.2875C20.0991 15.2875 18.962 16.4246 18.962 17.8271C18.962 18.8912 19.6179 19.7997 20.5461 20.1775ZM10.7084 15.2875C10.0564 15.2875 9.46782 15.5402 9.01831 15.9446L11.1255 20.3248C12.3287 20.1248 13.248 19.0867 13.248 17.8271C13.248 16.4246 12.1109 15.2875 10.7084 15.2875Z" fill="#FF9592"/>
</svg>
