<svg width="31" height="31" viewBox="0 0 31 31" fill="none" xmlns="http://www.w3.org/2000/svg">
<g clip-path="url(#clip0_17_288)">
<path fill-rule="evenodd" clip-rule="evenodd" d="M13.7883 2.9097C14.4945 2.01793 15.4862 1.63725 16.5573 1.63725C18.0067 1.63725 19.3057 2.41536 20.2818 3.45719C21.2613 4.5026 21.9798 5.87718 22.2582 7.22265C22.2609 7.23554 22.2631 7.2485 22.265 7.26152L22.8999 11.7058C22.9495 12.0529 22.7083 12.3745 22.3611 12.4241C22.014 12.4737 21.6924 12.2325 21.6428 11.8854L21.0108 7.46118C20.7784 6.35779 20.1756 5.20095 19.3552 4.32538C18.5268 3.44125 17.5402 2.90704 16.5573 2.90704C15.8043 2.90704 15.2088 3.16125 14.7838 3.698C14.3446 4.25264 14.0233 5.18995 14.0178 6.67746L14.6477 11.7168C14.6912 12.0648 14.4444 12.3821 14.0965 12.4256C13.7485 12.4691 13.4312 12.2223 13.3877 11.8743L12.7528 6.79516C12.7496 6.76904 12.7479 6.74274 12.7479 6.71641C12.7479 5.05206 13.1001 3.77874 13.7883 2.9097Z" fill="#E28D40"/>
<path d="M2.5896 29.8901L5.12918 7.66876L12.7479 8.30365L20.3667 7.66876L23.5412 29.8901H2.5896Z" fill="#FFB450"/>
<path d="M26.3982 26.3188L23.5412 29.8901L20.3667 7.66876L23.2237 9.09727L26.3982 26.3188Z" fill="#E28D40"/>
<path d="M8.93861 12.113C9.6399 12.113 10.2084 11.5445 10.2084 10.8432C10.2084 10.1419 9.6399 9.57344 8.93861 9.57344C8.23733 9.57344 7.66882 10.1419 7.66882 10.8432C7.66882 11.5445 8.23733 12.113 8.93861 12.113Z" fill="#FFF3F7"/>
<path d="M17.1922 12.113C17.8934 12.113 18.4619 11.5445 18.4619 10.8432C18.4619 10.1419 17.8934 9.57344 17.1922 9.57344C16.4909 9.57344 15.9224 10.1419 15.9224 10.8432C15.9224 11.5445 16.4909 12.113 17.1922 12.113Z" fill="#FFF3F7"/>
<path d="M29.8901 27.9854L26.0807 26.7156L22.9062 8.93855L24.8109 7.66876L29.8901 27.9854Z" fill="#ED9A40"/>
<path fill-rule="evenodd" clip-rule="evenodd" d="M10.1991 6.50884L9.56708 10.933C9.51749 11.2801 9.1959 11.5213 8.84878 11.4718C8.50166 11.4222 8.26046 11.1006 8.31005 10.7534L8.94495 6.30918C8.94681 6.29615 8.94907 6.28319 8.95174 6.27031C9.23016 4.92483 9.94859 3.55026 10.9281 2.50484C11.9042 1.46302 13.2032 0.684902 14.6526 0.684902C15.7237 0.684902 16.7154 1.06559 17.4216 1.95735C18.1098 2.8264 18.462 4.09972 18.462 5.76407C18.462 5.79039 18.4604 5.8167 18.4571 5.84282L17.8222 10.922C17.7787 11.2699 17.4614 11.5167 17.1135 11.4732C16.7655 11.4297 16.5187 11.1124 16.5622 10.7645L17.1921 5.72512C17.1866 4.2376 16.8654 3.3003 16.4262 2.74565C16.0011 2.2089 15.4056 1.95469 14.6526 1.95469C13.6697 1.95469 12.6831 2.48891 11.8547 3.37304C11.0343 4.24861 10.4315 5.40545 10.1991 6.50884Z" fill="#ED9A40"/>
<path d="M12.5206 24.1272L8.45726 20.0054C7.95096 19.4889 7.66736 18.7945 7.66736 18.0712C7.66736 17.3479 7.95096 16.6535 8.45726 16.137C8.70554 15.8836 9.00189 15.6823 9.32894 15.5449C9.656 15.4074 10.0072 15.3366 10.362 15.3366C10.7167 15.3366 11.0679 15.4074 11.395 15.5449C11.722 15.6823 12.0184 15.8836 12.2666 16.137L12.5174 16.391L12.5879 16.3186C12.8362 16.0652 13.1325 15.8639 13.4596 15.7264C13.7866 15.589 14.1378 15.5182 14.4926 15.5182C14.8473 15.5182 15.1985 15.589 15.5256 15.7264C15.8526 15.8639 16.149 16.0652 16.3973 16.3186C16.9036 16.8351 17.1872 17.5295 17.1872 18.2528C17.1872 18.9761 16.9036 19.6705 16.3973 20.187L12.5206 24.1272Z" fill="#FFF3F7"/>
<path d="M23.5411 29.8901L29.8901 27.9854L26.0807 26.7156L23.5411 29.8901Z" fill="#FFB450"/>
</g>
<defs>
<clipPath id="clip0_17_288">
<rect width="30.475" height="30.475" fill="white" transform="translate(0.0500488 0.0500069)"/>
</clipPath>
</defs>
</svg>
